HIERARCHY
ROOT root
{
	OFFSET 0.000000 0.000000 0.000000
	CHANNELS 6 Xposition Yposition Zposition Zrotation Yrotation Xrotation
	JOINT lhip
	{
		OFFSET 0.058581 -0.082280 -0.017664
		CHANNELS 3 Zrotation Yrotation Xrotation
		JOINT lknee
		{
			OFFSET 0.043451 -0.386469 0.008037
			CHANNELS 3 Zrotation Yrotation Xrotation
			JOINT lankle
			{
				OFFSET -0.014790 -0.426874 -0.037428
				CHANNELS 3 Zrotation Yrotation Xrotation
				JOINT ltoe
				{
					OFFSET 0.041054 -0.060286 0.122042
					CHANNELS 3 Zrotation Yrotation Xrotation
					End Site
					{
						OFFSET 0.000000 0.000000 0.000000
					}
				}
			}
		}
	}
	JOINT rhip
	{
		OFFSET -0.060310 -0.090513 -0.013543
		CHANNELS 3 Zrotation Yrotation Xrotation
		JOINT rknee
		{
			OFFSET -0.043257 -0.383688 -0.004843
			CHANNELS 3 Zrotation Yrotation Xrotation
			JOINT rankle
			{
				OFFSET 0.019056 -0.420046 -0.034562
				CHANNELS 3 Zrotation Yrotation Xrotation
				JOINT rtoe
				{
					OFFSET -0.034840 -0.062106 0.130323
					CHANNELS 3 Zrotation Yrotation Xrotation
					End Site
					{
						OFFSET 0.000000 0.000000 0.000000
					}
				}
			}
		}
	}
	JOINT lowerback
	{
		OFFSET 0.004439 0.124404 -0.038385
		CHANNELS 3 Zrotation Yrotation Xrotation
		JOINT upperback
		{
			OFFSET 0.004488 0.137956 0.026820
			CHANNELS 3 Zrotation Yrotation Xrotation
			JOINT chest
			{
				OFFSET -0.002265 0.056032 0.002855
				CHANNELS 3 Zrotation Yrotation Xrotation
				JOINT lowerneck
				{
					OFFSET -0.013390 0.211636 -0.033468
					CHANNELS 3 Zrotation Yrotation Xrotation
					JOINT upperneck
					{
						OFFSET 0.010113 0.088937 0.050410
						CHANNELS 3 Zrotation Yrotation Xrotation
						End Site
						{
							OFFSET 0.000000 0.000000 0.000000
						}
					}
				}
				JOINT lclavicle
				{
					OFFSET 0.071702 0.114000 -0.018898
					CHANNELS 3 Zrotation Yrotation Xrotation
					JOINT lshoulder
					{
						OFFSET 0.122921 0.045205 -0.019046
						CHANNELS 3 Zrotation Yrotation Xrotation
						JOINT lelbow
						{
							OFFSET 0.255332 -0.015649 -0.022946
							CHANNELS 3 Zrotation Yrotation Xrotation
							JOINT lwrist
							{
								OFFSET 0.265709 0.012698 -0.007375
								CHANNELS 3 Zrotation Yrotation Xrotation
								End Site
								{
									OFFSET 0.000000 0.000000 0.000000
								}
							}
						}
					}
				}
				JOINT rclavicle
				{
					OFFSET -0.082954 0.112472 -0.023707
					CHANNELS 3 Zrotation Yrotation Xrotation
					JOINT rshoulder
					{
						OFFSET -0.113228 0.046853 -0.008472
						CHANNELS 3 Zrotation Yrotation Xrotation
						JOINT relbow
						{
							OFFSET -0.260127 -0.014369 -0.031269
							CHANNELS 3 Zrotation Yrotation Xrotation
							JOINT rwrist
							{
								OFFSET -0.269108 0.006794 -0.006027
								CHANNELS 3 Zrotation Yrotation Xrotation
								End Site
								{
									OFFSET 0.000000 0.000000 0.000000
								}
							}
						}
					}
				}
			}
		}
	}
}
MOTION
Frames: 11
Frame Time: 0.033333
0.613574 0.119064 0.985314 87.674941 -2.849918 90.458134 8.274362 3.319232 2.943664 -3.233870 -6.199295 2.697773 0.132477 8.618868 -8.532632 0.000000 -0.000000 0.000000 -2.160536 -4.166350 -7.464017 2.093567 -5.726299 20.371689 -0.509572 -10.978401 -15.508787 0.000000 -0.000000 0.000000 1.004541 -4.026492 10.321866 1.000287 -4.171452 1.848515 -1.575062 -3.776970 3.330308 -1.197254 1.958844 -0.475613 -3.216425 -1.904564 6.331137 -25.760591 6.739806 4.776540 -53.709361 -9.060141 9.213477 2.674225 -40.416548 14.111113 -5.413447 -2.980661 -8.663422 26.860793 -8.219715 1.715190 56.048388 -5.162072 7.394949 -12.997758 11.345334 -6.570100 8.340141 -1.781195 -6.193625 
0.613864 0.118851 0.985149 86.625670 -2.708556 90.587534 8.409456 3.625049 3.330068 -3.207026 -6.086794 2.299045 0.172304 8.974238 -8.465617 0.000000 -0.000000 0.000000 -2.063974 -4.190207 -7.663735 2.172771 -5.451987 20.457159 -0.434314 -10.437883 -15.490299 0.000000 -0.000000 0.000000 0.997750 -4.057461 10.227326 1.048211 -4.171906 2.072585 -1.530191 -3.762883 3.512015 -1.143572 1.902950 -0.303499 -3.074756 -2.092648 6.542038 -25.879361 6.753620 4.415644 -53.630107 -8.960070 9.174739 2.435461 -39.967394 14.159990 -5.342805 -2.875845 -8.088312 26.640891 -8.484454 1.734886 55.617447 -5.378901 7.390018 -12.871173 11.739575 -6.121328 8.332310 -1.657956 -5.830420 
0.612750 0.119395 0.985253 85.748997 -2.635553 90.881870 8.387467 3.670358 3.177842 -3.196329 -5.841153 2.372563 0.265885 9.390145 -8.411472 0.000000 -0.000000 0.000000 -2.023154 -3.866425 -8.141407 2.285805 -5.030649 20.512642 -0.425565 -10.305186 -15.326855 0.000000 -0.000000 0.000000 1.047768 -4.169106 10.232337 1.015201 -4.158116 2.071931 -1.585927 -3.749182 3.536678 -1.330585 2.030405 -0.191466 -2.993885 -1.940613 6.683425 -26.026852 6.730624 4.397142 -53.405495 -9.060302 9.038643 2.512088 -39.592920 13.784647 -5.260897 -2.741302 -7.840690 26.615271 -8.519793 1.735509 55.302427 -5.498241 7.585825 -12.758071 12.062798 -5.849853 8.448856 -1.931160 -5.657647 
0.611923 0.120000 0.984974 85.027632 -2.564533 90.964111 8.467737 3.896771 3.283138 -3.253216 -5.622418 2.188071 0.409203 9.570167 -8.289655 0.000000 -0.000000 0.000000 -1.954593 -3.720161 -8.422956 2.270646 -4.756089 20.717834 -0.468636 -10.143306 -15.341621 0.000000 -0.000000 0.000000 0.919330 -4.262413 10.236091 1.084434 -4.211675 2.299166 -1.522284 -3.779479 3.483666 -1.570786 2.239004 0.117976 -3.232222 -1.900655 7.275086 -25.913086 6.589968 4.381619 -53.501772 -9.189908 8.937814 2.741015 -39.000992 13.564792 -5.308481 -2.691673 -7.727009 26.427444 -8.324867 1.793140 55.170480 -5.193223 7.722767 -12.457228 11.872400 -5.608358 8.519030 -1.799466 -5.678669 
0.610950 0.120923 0.985110 84.576146 -2.463181 90.991136 8.521603 3.948797 3.313340 -3.225042 -5.419477 2.126227 0.340242 9.667021 -8.342312 0.000000 -0.000000 0.000000 -1.939667 -3.553319 -8.365106 2.248534 -4.975199 20.394137 -0.506477 -9.812249 -15.088402 0.000000 -0.000000 0.000000 1.024826 -4.369187 10.383336 1.142972 -4.236397 2.189212 -1.543351 -3.789919 3.427668 -1.994695 2.268726 0.894130 -3.625367 -2.050408 8.082256 -25.912060 6.423527 4.609960 -53.477694 -9.347342 8.916016 2.980424 -38.740283 13.364766 -5.359702 -2.823251 -7.862882 26.445628 -7.994609 2.093239 55.191536 -4.737063 7.805469 -12.396268 11.505592 -5.509178 8.294455 -1.474464 -5.678477 
0.609415 0.122094 0.985057 84.089203 -2.455301 91.096883 8.420793 3.926031 3.219185 -3.194922 -5.323009 2.212834 0.575992 9.646880 -8.125608 0.000000 -0.000000 0.000000 -1.954329 -3.360740 -8.833520 2.210811 -4.631720 20.777960 -0.454789 -9.866116 -15.000834 0.000000 -0.000000 0.000000 1.032729 -4.357310 10.333573 1.255701 -4.206120 2.158993 -1.623920 -3.834980 3.374980 -2.402987 2.337532 1.716381 -4.210843 -2.317429 9.229537 -25.783354 6.284874 4.886560 -53.481292 -9.710871 9.002647 3.199605 -38.510458 13.024632 -5.322144 -2.748392 -7.889852 26.647929 -7.529509 2.414011 55.286222 -4.144385 8.082830 -12.605322 11.470426 -5.939380 8.180092 -1.400170 -5.829740 
0.609558 0.123292 0.984719 83.718948 -2.420692 90.820112 8.376628 3.976883 3.757304 -3.150654 -5.248170 1.907566 0.611066 9.655971 -8.247243 0.000000 -0.000000 0.000000 -2.023305 -3.407141 -8.570677 2.206412 -4.411101 20.781465 -0.315999 -9.661673 -14.887876 0.000000 -0.000000 0.000000 1.059147 -4.217038 9.907879 1.393060 -4.184252 2.698897 -1.699984 -3.830078 3.542306 -2.841758 2.224187 2.767320 -4.837627 -2.724186 10.410425 -25.601641 5.811215 5.327722 -53.499120 -10.146621 9.143385 3.444346 -38.509333 12.758324 -5.383471 -2.765335 -8.245021 26.843529 -6.900907 2.578321 55.294831 -3.324499 8.127360 -12.544034 11.169478 -6.354510 7.997802 -1.331006 -6.255374 
0.607861 0.125022 0.984904 83.657529 -2.428146 90.725036 8.262843 3.817235 3.764169 -3.161330 -5.125194 1.911651 0.544686 9.582498 -8.244361 0.000000 -0.000000 0.000000 -2.141049 -3.105497 -8.595565 2.198826 -4.511288 20.718590 -0.237775 -9.784170 -14.744785 0.000000 -0.000000 0.000000 1.159220 -4.176968 9.583522 1.518057 -4.128660 2.927223 -1.794813 -3.734829 3.673133 -3.268482 2.014629 4.020241 -5.464934 -3.369027 11.761521 -25.515555 5.224224 5.921184 -53.479835 -10.789888 9.372293 4.059985 -38.723262 11.909698 -5.226781 -2.666906 -8.093801 27.348218 -6.250945 2.541497 55.237666 -2.381600 8.126112 -12.829353 10.711082 -7.290977 7.719083 -1.404514 -6.389005 
0.607146 0.126926 0.985006 83.830300 -2.582444 90.550123 8.069125 3.854767 3.894853 -3.278257 -5.159441 1.827260 0.521834 9.488308 -8.284935 0.000000 -0.000000 0.000000 -2.461211 -3.314933 -8.578659 2.162984 -4.598611 20.886080 -0.162451 -9.747106 -14.688030 0.000000 -0.000000 0.000000 0.903241 -4.180294 9.712231 1.742875 -4.196741 2.707825 -1.651497 -3.820146 3.557700 -3.380362 1.996915 5.122554 -6.442344 -3.956443 13.546224 -25.505976 5.569013 5.617047 -53.392509 -10.880587 9.742050 3.651875 -39.141632 12.297050 -5.606553 -2.684011 -8.402255 27.869188 -5.883291 2.484076 54.733620 -1.357020 8.275540 -12.935703 10.307795 -8.372921 7.621948 -1.285996 -6.307025 
0.606566 0.128959 0.985179 84.239020 -2.709848 90.241858 7.850680 3.864728 4.084454 -3.312742 -5.415680 1.797508 0.350891 9.364982 -8.347920 0.000000 -0.000000 0.000000 -2.764715 -3.532342 -8.398282 2.128310 -4.600691 21.059723 0.076461 -9.744997 -14.706099 0.000000 -0.000000 0.000000 0.631310 -4.158405 9.584628 2.024527 -4.223962 2.483473 -1.555700 -4.095921 3.793959 -3.235269 1.934387 6.387381 -7.382609 -4.655706 15.535838 -25.461149 6.005554 5.261137 -53.494211 -11.142618 10.268207 3.495841 -39.562746 12.467398 -5.710150 -2.736150 -8.107213 28.335907 -5.491440 1.778437 54.053530 -0.224108 8.669206 -12.771272 9.646344 -9.181697 7.587351 -1.373955 -6.032461 
0.605083 0.131767 0.985321 84.897301 -2.874165 89.785245 7.536046 3.731531 4.417834 -3.265191 -5.656537 1.581702 0.291899 9.141324 -8.183671 0.000000 -0.000000 0.000000 -3.092112 -3.619355 -8.068162 1.964164 -4.834589 21.153751 0.156343 -9.935501 -14.620637 0.000000 -0.000000 0.000000 0.642465 -3.952634 9.311893 2.113169 -4.260947 2.804337 -1.597383 -3.992517 4.006429 -3.016651 1.421199 6.880875 -7.647507 -5.434108 16.131039 -25.303542 5.378917 5.639781 -53.437680 -11.664871 10.552438 3.659724 -40.279501 12.123627 -5.579353 -2.763281 -8.704447 28.819016 -4.916292 1.657282 53.782360 0.915856 8.644802 -13.067672 9.446348 -10.073757 7.113905 -1.193888 -6.209529 
